<svg version="1.1" baseProfile="full" xmlns="http://www.w3.org/2000/svg" width="512" height="512" viewBox="0 0 512 512">
  <path d="M213.333 138.667l-128 85.333v-85.333h-42.666v149.333h42.666l-42.666 42.667h106.667l-64-64 128-85.333zm-42.666 213.333h-106.667l42.666-42.667h-42.666v-149.333h42.666l128-85.333v85.333h42.667v-149.333h-42.667l42.667-42.667h-106.667l64 64-128 85.333zm256-170.667l-128 85.333v-85.333h-42.667v149.333h42.667l-42.667 42.667h106.667l-64-64 128-85.333zm-42.667 213.333h-106.667l42.667-42.667h-42.667v-149.333h42.667l128-85.333v85.333h42.666v-149.333h-42.666l42.666-42.667h-106.666l64 64-128 85.333z"/>
</svg>